<mxfile host="app.diagrams.net" modified="2024-06-04T09:13:32.407Z" agent="Mozilla/5.0 (Windows NT 10.0; Win64; x64) AppleWebKit/537.36 (KHTML, like Gecko) Chrome/124.0.0.0 Safari/537.36" etag="IUtuTgpRrnfJ0Dk5_Xhn" version="24.4.6" type="device">
  <diagram id="R2lEEEUBdFMjLlhIrx00" name="Page-1">
    <mxGraphModel dx="2249" dy="1911" grid="1" gridSize="10" guides="1" tooltips="1" connect="1" arrows="1" fold="1" page="1" pageScale="1" pageWidth="850" pageHeight="1100" math="0" shadow="0" extFonts="Permanent Marker^https://fonts.googleapis.com/css?family=Permanent+Marker">
      <root>
        <mxCell id="0" />
        <mxCell id="1" parent="0" />
        <mxCell id="tjL4641ZIOQCVREwr72X-2" value="&lt;u&gt;idCharacter&lt;/u&gt;" style="rounded=0;whiteSpace=wrap;html=1;" parent="1" vertex="1">
          <mxGeometry x="40" y="80" width="120" height="60" as="geometry" />
        </mxCell>
        <mxCell id="tjL4641ZIOQCVREwr72X-3" value="Character" style="text;html=1;align=center;verticalAlign=middle;resizable=0;points=[];autosize=1;strokeColor=none;fillColor=none;" parent="1" vertex="1">
          <mxGeometry x="40" y="48" width="80" height="30" as="geometry" />
        </mxCell>
        <mxCell id="tjL4641ZIOQCVREwr72X-4" value="attacks" style="rounded=0;whiteSpace=wrap;html=1;" parent="1" vertex="1">
          <mxGeometry x="160" y="80" width="120" height="60" as="geometry" />
        </mxCell>
        <mxCell id="tjL4641ZIOQCVREwr72X-5" value="attributes" style="rounded=0;whiteSpace=wrap;html=1;" parent="1" vertex="1">
          <mxGeometry x="280" y="80" width="120" height="60" as="geometry" />
        </mxCell>
        <mxCell id="tjL4641ZIOQCVREwr72X-6" value="description" style="rounded=0;whiteSpace=wrap;html=1;" parent="1" vertex="1">
          <mxGeometry x="400" y="80" width="120" height="60" as="geometry" />
        </mxCell>
        <mxCell id="tjL4641ZIOQCVREwr72X-7" value="name" style="rounded=0;whiteSpace=wrap;html=1;" parent="1" vertex="1">
          <mxGeometry x="520" y="80" width="120" height="60" as="geometry" />
        </mxCell>
        <mxCell id="tjL4641ZIOQCVREwr72X-8" value="Item" style="text;html=1;align=center;verticalAlign=middle;resizable=0;points=[];autosize=1;strokeColor=none;fillColor=none;" parent="1" vertex="1">
          <mxGeometry x="55" y="168" width="50" height="30" as="geometry" />
        </mxCell>
        <mxCell id="tjL4641ZIOQCVREwr72X-9" value="&lt;u&gt;idItem&lt;/u&gt;" style="rounded=0;whiteSpace=wrap;html=1;" parent="1" vertex="1">
          <mxGeometry x="40" y="200" width="120" height="60" as="geometry" />
        </mxCell>
        <mxCell id="tjL4641ZIOQCVREwr72X-10" value="description" style="rounded=0;whiteSpace=wrap;html=1;" parent="1" vertex="1">
          <mxGeometry x="160" y="200" width="120" height="60" as="geometry" />
        </mxCell>
        <mxCell id="tjL4641ZIOQCVREwr72X-11" value="useRequisites" style="rounded=0;whiteSpace=wrap;html=1;" parent="1" vertex="1">
          <mxGeometry x="280" y="200" width="120" height="60" as="geometry" />
        </mxCell>
        <mxCell id="tjL4641ZIOQCVREwr72X-12" value="name" style="rounded=0;whiteSpace=wrap;html=1;" parent="1" vertex="1">
          <mxGeometry x="400" y="200" width="120" height="60" as="geometry" />
        </mxCell>
        <mxCell id="tjL4641ZIOQCVREwr72X-15" value="Weapons" style="text;html=1;align=center;verticalAlign=middle;resizable=0;points=[];autosize=1;strokeColor=none;fillColor=none;" parent="1" vertex="1">
          <mxGeometry x="45" y="288" width="70" height="30" as="geometry" />
        </mxCell>
        <mxCell id="ZSU2yMdnMfYjr0uOL4E9-22" style="edgeStyle=orthogonalEdgeStyle;rounded=0;orthogonalLoop=1;jettySize=auto;html=1;exitX=0;exitY=0.5;exitDx=0;exitDy=0;endArrow=none;endFill=0;" parent="1" source="tjL4641ZIOQCVREwr72X-16" edge="1">
          <mxGeometry relative="1" as="geometry">
            <mxPoint x="20" y="330" as="targetPoint" />
          </mxGeometry>
        </mxCell>
        <mxCell id="tjL4641ZIOQCVREwr72X-16" value="&lt;u&gt;Item_idItem&lt;/u&gt;" style="rounded=0;whiteSpace=wrap;html=1;" parent="1" vertex="1">
          <mxGeometry x="40" y="320" width="120" height="60" as="geometry" />
        </mxCell>
        <mxCell id="tjL4641ZIOQCVREwr72X-17" value="range" style="rounded=0;whiteSpace=wrap;html=1;" parent="1" vertex="1">
          <mxGeometry x="280" y="320" width="120" height="60" as="geometry" />
        </mxCell>
        <mxCell id="tjL4641ZIOQCVREwr72X-18" value="damage" style="rounded=0;whiteSpace=wrap;html=1;" parent="1" vertex="1">
          <mxGeometry x="400" y="320" width="120" height="60" as="geometry" />
        </mxCell>
        <mxCell id="tjL4641ZIOQCVREwr72X-19" value="abilities" style="rounded=0;whiteSpace=wrap;html=1;" parent="1" vertex="1">
          <mxGeometry x="520" y="320" width="120" height="60" as="geometry" />
        </mxCell>
        <mxCell id="tjL4641ZIOQCVREwr72X-20" value="scalingAttributes" style="rounded=0;whiteSpace=wrap;html=1;" parent="1" vertex="1">
          <mxGeometry x="640" y="320" width="120" height="60" as="geometry" />
        </mxCell>
        <mxCell id="tjL4641ZIOQCVREwr72X-22" value="Armour" style="text;html=1;align=center;verticalAlign=middle;resizable=0;points=[];autosize=1;strokeColor=none;fillColor=none;" parent="1" vertex="1">
          <mxGeometry x="50" y="408" width="60" height="30" as="geometry" />
        </mxCell>
        <mxCell id="ZSU2yMdnMfYjr0uOL4E9-19" style="edgeStyle=orthogonalEdgeStyle;rounded=0;orthogonalLoop=1;jettySize=auto;html=1;exitX=0;exitY=0.5;exitDx=0;exitDy=0;entryX=0.25;entryY=1;entryDx=0;entryDy=0;" parent="1" source="tjL4641ZIOQCVREwr72X-23" target="tjL4641ZIOQCVREwr72X-9" edge="1">
          <mxGeometry relative="1" as="geometry">
            <Array as="points">
              <mxPoint x="20" y="469" />
              <mxPoint x="20" y="280" />
              <mxPoint x="70" y="280" />
            </Array>
          </mxGeometry>
        </mxCell>
        <mxCell id="tjL4641ZIOQCVREwr72X-23" value="&lt;u&gt;Item_idItem&lt;/u&gt;" style="rounded=0;whiteSpace=wrap;html=1;" parent="1" vertex="1">
          <mxGeometry x="40" y="439" width="120" height="61" as="geometry" />
        </mxCell>
        <mxCell id="tjL4641ZIOQCVREwr72X-24" value="weight&lt;span style=&quot;white-space: pre;&quot;&gt;&#x9;&lt;/span&gt;" style="rounded=0;whiteSpace=wrap;html=1;" parent="1" vertex="1">
          <mxGeometry x="280" y="439" width="120" height="61" as="geometry" />
        </mxCell>
        <mxCell id="tjL4641ZIOQCVREwr72X-25" value="magicDef" style="rounded=0;whiteSpace=wrap;html=1;" parent="1" vertex="1">
          <mxGeometry x="400" y="439" width="120" height="61" as="geometry" />
        </mxCell>
        <mxCell id="tjL4641ZIOQCVREwr72X-26" value="physicalDef" style="rounded=0;whiteSpace=wrap;html=1;" parent="1" vertex="1">
          <mxGeometry x="520" y="439" width="120" height="61" as="geometry" />
        </mxCell>
        <mxCell id="tjL4641ZIOQCVREwr72X-27" value="elementsRes" style="rounded=0;whiteSpace=wrap;html=1;" parent="1" vertex="1">
          <mxGeometry x="640" y="439" width="120" height="61" as="geometry" />
        </mxCell>
        <mxCell id="tjL4641ZIOQCVREwr72X-29" value="Talismas" style="text;html=1;align=center;verticalAlign=middle;resizable=0;points=[];autosize=1;strokeColor=none;fillColor=none;" parent="1" vertex="1">
          <mxGeometry x="45" y="528" width="70" height="30" as="geometry" />
        </mxCell>
        <mxCell id="ZSU2yMdnMfYjr0uOL4E9-20" style="edgeStyle=orthogonalEdgeStyle;rounded=0;orthogonalLoop=1;jettySize=auto;html=1;exitX=0;exitY=0.5;exitDx=0;exitDy=0;strokeColor=default;endArrow=none;endFill=0;" parent="1" source="tjL4641ZIOQCVREwr72X-30" edge="1">
          <mxGeometry relative="1" as="geometry">
            <mxPoint x="20" y="450" as="targetPoint" />
          </mxGeometry>
        </mxCell>
        <mxCell id="tjL4641ZIOQCVREwr72X-30" value="&lt;u&gt;Item_idItem&lt;/u&gt;" style="rounded=0;whiteSpace=wrap;html=1;" parent="1" vertex="1">
          <mxGeometry x="40" y="559" width="120" height="61" as="geometry" />
        </mxCell>
        <mxCell id="tjL4641ZIOQCVREwr72X-31" value="&lt;u&gt;name&lt;/u&gt;" style="rounded=0;whiteSpace=wrap;html=1;" parent="1" vertex="1">
          <mxGeometry x="160" y="559" width="120" height="61" as="geometry" />
        </mxCell>
        <mxCell id="ZSU2yMdnMfYjr0uOL4E9-21" style="edgeStyle=orthogonalEdgeStyle;rounded=0;orthogonalLoop=1;jettySize=auto;html=1;exitX=0;exitY=0.5;exitDx=0;exitDy=0;endArrow=none;endFill=0;" parent="1" source="tjL4641ZIOQCVREwr72X-36" edge="1">
          <mxGeometry relative="1" as="geometry">
            <mxPoint x="20" y="580" as="targetPoint" />
          </mxGeometry>
        </mxCell>
        <mxCell id="tjL4641ZIOQCVREwr72X-36" value="&lt;u&gt;Item_idItem&lt;/u&gt;" style="rounded=0;whiteSpace=wrap;html=1;" parent="1" vertex="1">
          <mxGeometry x="40" y="680" width="120" height="60" as="geometry" />
        </mxCell>
        <mxCell id="tjL4641ZIOQCVREwr72X-37" value="Magic" style="text;html=1;align=center;verticalAlign=middle;resizable=0;points=[];autosize=1;strokeColor=none;fillColor=none;" parent="1" vertex="1">
          <mxGeometry x="50" y="648" width="60" height="30" as="geometry" />
        </mxCell>
        <mxCell id="tjL4641ZIOQCVREwr72X-38" value="effect" style="rounded=0;whiteSpace=wrap;html=1;" parent="1" vertex="1">
          <mxGeometry x="280" y="680" width="120" height="60" as="geometry" />
        </mxCell>
        <mxCell id="tjL4641ZIOQCVREwr72X-39" value="manaCost" style="rounded=0;whiteSpace=wrap;html=1;" parent="1" vertex="1">
          <mxGeometry x="400" y="680" width="120" height="60" as="geometry" />
        </mxCell>
        <mxCell id="tjL4641ZIOQCVREwr72X-40" value="damageType" style="rounded=0;whiteSpace=wrap;html=1;" parent="1" vertex="1">
          <mxGeometry x="520" y="680" width="120" height="60" as="geometry" />
        </mxCell>
        <mxCell id="tjL4641ZIOQCVREwr72X-42" value="&lt;u&gt;idCrafting&lt;/u&gt;" style="rounded=0;whiteSpace=wrap;html=1;" parent="1" vertex="1">
          <mxGeometry x="40" y="800" width="120" height="60" as="geometry" />
        </mxCell>
        <mxCell id="tjL4641ZIOQCVREwr72X-43" value="CraftingMaterials" style="text;html=1;align=center;verticalAlign=middle;resizable=0;points=[];autosize=1;strokeColor=none;fillColor=none;" parent="1" vertex="1">
          <mxGeometry x="40" y="768" width="110" height="30" as="geometry" />
        </mxCell>
        <mxCell id="tjL4641ZIOQCVREwr72X-44" value="quantity" style="rounded=0;whiteSpace=wrap;html=1;" parent="1" vertex="1">
          <mxGeometry x="160" y="800" width="120" height="60" as="geometry" />
        </mxCell>
        <mxCell id="ZSU2yMdnMfYjr0uOL4E9-16" style="edgeStyle=orthogonalEdgeStyle;rounded=0;orthogonalLoop=1;jettySize=auto;html=1;exitX=0.5;exitY=1;exitDx=0;exitDy=0;entryX=0.5;entryY=1;entryDx=0;entryDy=0;" parent="1" source="tjL4641ZIOQCVREwr72X-45" target="tjL4641ZIOQCVREwr72X-52" edge="1">
          <mxGeometry relative="1" as="geometry">
            <Array as="points">
              <mxPoint x="340" y="880" />
              <mxPoint y="880" />
              <mxPoint y="-80" />
              <mxPoint x="100" y="-80" />
            </Array>
          </mxGeometry>
        </mxCell>
        <mxCell id="tjL4641ZIOQCVREwr72X-45" value="source" style="rounded=0;whiteSpace=wrap;html=1;" parent="1" vertex="1">
          <mxGeometry x="280" y="800" width="120" height="60" as="geometry" />
        </mxCell>
        <mxCell id="tjL4641ZIOQCVREwr72X-46" value="craftingUse" style="rounded=0;whiteSpace=wrap;html=1;" parent="1" vertex="1">
          <mxGeometry x="400" y="800" width="120" height="60" as="geometry" />
        </mxCell>
        <mxCell id="ZSU2yMdnMfYjr0uOL4E9-15" style="edgeStyle=orthogonalEdgeStyle;rounded=0;orthogonalLoop=1;jettySize=auto;html=1;exitX=0.5;exitY=0;exitDx=0;exitDy=0;endArrow=none;endFill=0;" parent="1" source="tjL4641ZIOQCVREwr72X-47" edge="1">
          <mxGeometry relative="1" as="geometry">
            <mxPoint x="20" y="700" as="targetPoint" />
            <Array as="points">
              <mxPoint x="580" y="760" />
              <mxPoint x="20" y="760" />
            </Array>
          </mxGeometry>
        </mxCell>
        <mxCell id="tjL4641ZIOQCVREwr72X-47" value="usedItems" style="rounded=0;whiteSpace=wrap;html=1;" parent="1" vertex="1">
          <mxGeometry x="520" y="800" width="120" height="60" as="geometry" />
        </mxCell>
        <mxCell id="tjL4641ZIOQCVREwr72X-52" value="&lt;u&gt;idLocation&lt;/u&gt;" style="rounded=0;whiteSpace=wrap;html=1;" parent="1" vertex="1">
          <mxGeometry x="40" y="-160" width="120" height="60" as="geometry" />
        </mxCell>
        <mxCell id="tjL4641ZIOQCVREwr72X-53" value="Locations" style="text;html=1;align=center;verticalAlign=middle;resizable=0;points=[];autosize=1;strokeColor=none;fillColor=none;" parent="1" vertex="1">
          <mxGeometry x="45" y="-192" width="70" height="30" as="geometry" />
        </mxCell>
        <mxCell id="tjL4641ZIOQCVREwr72X-54" value="area" style="rounded=0;whiteSpace=wrap;html=1;" parent="1" vertex="1">
          <mxGeometry x="160" y="-160" width="120" height="60" as="geometry" />
        </mxCell>
        <mxCell id="tjL4641ZIOQCVREwr72X-55" value="description" style="rounded=0;whiteSpace=wrap;html=1;" parent="1" vertex="1">
          <mxGeometry x="280" y="-160" width="120" height="60" as="geometry" />
        </mxCell>
        <mxCell id="tjL4641ZIOQCVREwr72X-56" value="name" style="rounded=0;whiteSpace=wrap;html=1;" parent="1" vertex="1">
          <mxGeometry x="400" y="-160" width="120" height="60" as="geometry" />
        </mxCell>
        <mxCell id="tjL4641ZIOQCVREwr72X-57" value="pointsOfInterest" style="rounded=0;whiteSpace=wrap;html=1;" parent="1" vertex="1">
          <mxGeometry x="520" y="-160" width="120" height="60" as="geometry" />
        </mxCell>
        <mxCell id="ZSU2yMdnMfYjr0uOL4E9-23" style="edgeStyle=orthogonalEdgeStyle;rounded=0;orthogonalLoop=1;jettySize=auto;html=1;exitX=0.5;exitY=0;exitDx=0;exitDy=0;entryX=0.5;entryY=1;entryDx=0;entryDy=0;" parent="1" source="tjL4641ZIOQCVREwr72X-60" target="tjL4641ZIOQCVREwr72X-2" edge="1">
          <mxGeometry relative="1" as="geometry">
            <Array as="points">
              <mxPoint x="910" y="160" />
              <mxPoint x="100" y="160" />
            </Array>
          </mxGeometry>
        </mxCell>
        <mxCell id="tjL4641ZIOQCVREwr72X-60" value="&lt;u&gt;Character_idCharacter&lt;/u&gt;" style="rounded=0;whiteSpace=wrap;html=1;" parent="1" vertex="1">
          <mxGeometry x="840" y="200" width="140" height="60" as="geometry" />
        </mxCell>
        <mxCell id="tjL4641ZIOQCVREwr72X-61" value="Boss" style="text;html=1;align=center;verticalAlign=middle;resizable=0;points=[];autosize=1;strokeColor=none;fillColor=none;" parent="1" vertex="1">
          <mxGeometry x="855" y="168" width="50" height="30" as="geometry" />
        </mxCell>
        <mxCell id="tjL4641ZIOQCVREwr72X-62" value="cutscene" style="rounded=0;whiteSpace=wrap;html=1;" parent="1" vertex="1">
          <mxGeometry x="980" y="200" width="120" height="60" as="geometry" />
        </mxCell>
        <mxCell id="ZSU2yMdnMfYjr0uOL4E9-1" value="class" style="rounded=0;whiteSpace=wrap;html=1;" parent="1" vertex="1">
          <mxGeometry x="640" y="80" width="120" height="60" as="geometry" />
        </mxCell>
        <mxCell id="ZSU2yMdnMfYjr0uOL4E9-2" value="weakness" style="rounded=0;whiteSpace=wrap;html=1;" parent="1" vertex="1">
          <mxGeometry x="760" y="80" width="120" height="60" as="geometry" />
        </mxCell>
        <mxCell id="ZSU2yMdnMfYjr0uOL4E9-24" style="edgeStyle=orthogonalEdgeStyle;rounded=0;orthogonalLoop=1;jettySize=auto;html=1;exitX=0.5;exitY=0;exitDx=0;exitDy=0;entryX=0.5;entryY=1;entryDx=0;entryDy=0;" parent="1" source="ZSU2yMdnMfYjr0uOL4E9-3" target="tjL4641ZIOQCVREwr72X-52" edge="1">
          <mxGeometry relative="1" as="geometry">
            <Array as="points">
              <mxPoint x="940" y="-80" />
              <mxPoint x="100" y="-80" />
            </Array>
          </mxGeometry>
        </mxCell>
        <mxCell id="ZSU2yMdnMfYjr0uOL4E9-3" value="Location_idlocation" style="rounded=0;whiteSpace=wrap;html=1;" parent="1" vertex="1">
          <mxGeometry x="880" y="80" width="120" height="60" as="geometry" />
        </mxCell>
        <mxCell id="ZSU2yMdnMfYjr0uOL4E9-4" value="level" style="rounded=0;whiteSpace=wrap;html=1;" parent="1" vertex="1">
          <mxGeometry x="1000" y="80" width="120" height="60" as="geometry" />
        </mxCell>
        <mxCell id="ZSU2yMdnMfYjr0uOL4E9-5" value="&lt;u&gt;idDungeon&lt;/u&gt;" style="rounded=0;whiteSpace=wrap;html=1;" parent="1" vertex="1">
          <mxGeometry x="40" y="-40" width="120" height="60" as="geometry" />
        </mxCell>
        <mxCell id="ZSU2yMdnMfYjr0uOL4E9-6" value="Dungeon" style="text;html=1;align=center;verticalAlign=middle;resizable=0;points=[];autosize=1;strokeColor=none;fillColor=none;" parent="1" vertex="1">
          <mxGeometry x="45" y="-72" width="70" height="30" as="geometry" />
        </mxCell>
        <mxCell id="ZSU2yMdnMfYjr0uOL4E9-26" style="edgeStyle=orthogonalEdgeStyle;rounded=0;orthogonalLoop=1;jettySize=auto;html=1;exitX=0.5;exitY=0;exitDx=0;exitDy=0;endArrow=none;endFill=0;" parent="1" source="ZSU2yMdnMfYjr0uOL4E9-7" edge="1">
          <mxGeometry relative="1" as="geometry">
            <mxPoint x="219.82608695652198" y="-80" as="targetPoint" />
          </mxGeometry>
        </mxCell>
        <mxCell id="ZSU2yMdnMfYjr0uOL4E9-7" value="Location_idLocation" style="rounded=0;whiteSpace=wrap;html=1;" parent="1" vertex="1">
          <mxGeometry x="160" y="-40" width="120" height="60" as="geometry" />
        </mxCell>
        <mxCell id="ZSU2yMdnMfYjr0uOL4E9-8" value="area" style="rounded=0;whiteSpace=wrap;html=1;" parent="1" vertex="1">
          <mxGeometry x="280" y="-40" width="120" height="60" as="geometry" />
        </mxCell>
        <mxCell id="ZSU2yMdnMfYjr0uOL4E9-9" value="name" style="rounded=0;whiteSpace=wrap;html=1;" parent="1" vertex="1">
          <mxGeometry x="400" y="-40" width="120" height="60" as="geometry" />
        </mxCell>
        <mxCell id="ZSU2yMdnMfYjr0uOL4E9-10" value="mainBoss" style="rounded=0;whiteSpace=wrap;html=1;" parent="1" vertex="1">
          <mxGeometry x="520" y="-40" width="120" height="60" as="geometry" />
        </mxCell>
        <mxCell id="ZSU2yMdnMfYjr0uOL4E9-11" value="effect" style="rounded=0;whiteSpace=wrap;html=1;" parent="1" vertex="1">
          <mxGeometry x="280" y="559" width="120" height="61" as="geometry" />
        </mxCell>
        <mxCell id="ZSU2yMdnMfYjr0uOL4E9-12" value="&lt;u&gt;name&lt;/u&gt;" style="rounded=0;whiteSpace=wrap;html=1;" parent="1" vertex="1">
          <mxGeometry x="160" y="680" width="120" height="60" as="geometry" />
        </mxCell>
        <mxCell id="ZSU2yMdnMfYjr0uOL4E9-13" value="&lt;u&gt;name&lt;/u&gt;" style="rounded=0;whiteSpace=wrap;html=1;" parent="1" vertex="1">
          <mxGeometry x="160" y="439" width="120" height="61" as="geometry" />
        </mxCell>
        <mxCell id="ZSU2yMdnMfYjr0uOL4E9-14" value="&lt;u&gt;name&lt;/u&gt;" style="rounded=0;whiteSpace=wrap;html=1;" parent="1" vertex="1">
          <mxGeometry x="160" y="320" width="120" height="60" as="geometry" />
        </mxCell>
        <mxCell id="ZSU2yMdnMfYjr0uOL4E9-28" style="edgeStyle=orthogonalEdgeStyle;rounded=0;orthogonalLoop=1;jettySize=auto;html=1;exitX=0.5;exitY=0;exitDx=0;exitDy=0;endArrow=none;endFill=0;" parent="1" source="ZSU2yMdnMfYjr0uOL4E9-27" edge="1">
          <mxGeometry relative="1" as="geometry">
            <mxPoint x="580.3684210526317" y="160" as="targetPoint" />
          </mxGeometry>
        </mxCell>
        <mxCell id="ZSU2yMdnMfYjr0uOL4E9-27" value="owner" style="rounded=0;whiteSpace=wrap;html=1;" parent="1" vertex="1">
          <mxGeometry x="520" y="200" width="120" height="60" as="geometry" />
        </mxCell>
        <mxCell id="ZSU2yMdnMfYjr0uOL4E9-30" style="edgeStyle=orthogonalEdgeStyle;rounded=0;orthogonalLoop=1;jettySize=auto;html=1;exitX=0.5;exitY=1;exitDx=0;exitDy=0;entryX=0;entryY=0.5;entryDx=0;entryDy=0;" parent="1" source="ZSU2yMdnMfYjr0uOL4E9-29" target="ZSU2yMdnMfYjr0uOL4E9-5" edge="1">
          <mxGeometry relative="1" as="geometry">
            <Array as="points">
              <mxPoint x="700" y="290" />
              <mxPoint x="-30" y="290" />
              <mxPoint x="-30" y="-10" />
            </Array>
          </mxGeometry>
        </mxCell>
        <mxCell id="ZSU2yMdnMfYjr0uOL4E9-29" value="award" style="rounded=0;whiteSpace=wrap;html=1;" parent="1" vertex="1">
          <mxGeometry x="640" y="200" width="120" height="60" as="geometry" />
        </mxCell>
        <mxCell id="PuZwZ3O-Ejt7XdEqL10G-1" style="edgeStyle=orthogonalEdgeStyle;rounded=0;orthogonalLoop=1;jettySize=auto;html=1;exitX=0.5;exitY=0;exitDx=0;exitDy=0;entryX=0.5;entryY=1;entryDx=0;entryDy=0;fontSize=12;startSize=8;endSize=8;" parent="1" source="BtCr32K9hSUPDEqNoKbr-1" target="tjL4641ZIOQCVREwr72X-9" edge="1">
          <mxGeometry relative="1" as="geometry">
            <Array as="points">
              <mxPoint x="910" y="280" />
              <mxPoint x="100" y="280" />
            </Array>
          </mxGeometry>
        </mxCell>
        <mxCell id="BtCr32K9hSUPDEqNoKbr-1" value="&lt;u&gt;Item_Id&lt;/u&gt;" style="rounded=0;whiteSpace=wrap;html=1;" parent="1" vertex="1">
          <mxGeometry x="840" y="320" width="140" height="60" as="geometry" />
        </mxCell>
        <mxCell id="PuZwZ3O-Ejt7XdEqL10G-2" style="edgeStyle=orthogonalEdgeStyle;rounded=0;orthogonalLoop=1;jettySize=auto;html=1;exitX=0.5;exitY=0;exitDx=0;exitDy=0;entryX=0.5;entryY=1;entryDx=0;entryDy=0;fontSize=12;startSize=8;endSize=8;" parent="1" source="BtCr32K9hSUPDEqNoKbr-2" target="tjL4641ZIOQCVREwr72X-42" edge="1">
          <mxGeometry relative="1" as="geometry">
            <Array as="points">
              <mxPoint x="1040" y="300" />
              <mxPoint x="1170" y="300" />
              <mxPoint x="1170" y="900" />
              <mxPoint x="100" y="900" />
            </Array>
          </mxGeometry>
        </mxCell>
        <mxCell id="BtCr32K9hSUPDEqNoKbr-2" value="&lt;u&gt;Material_Id&lt;/u&gt;" style="rounded=0;whiteSpace=wrap;html=1;" parent="1" vertex="1">
          <mxGeometry x="980" y="320" width="120" height="60" as="geometry" />
        </mxCell>
        <mxCell id="BtCr32K9hSUPDEqNoKbr-3" value="Crafts" style="text;html=1;align=center;verticalAlign=middle;resizable=0;points=[];autosize=1;strokeColor=none;fillColor=none;" parent="1" vertex="1">
          <mxGeometry x="850" y="288" width="60" height="30" as="geometry" />
        </mxCell>
        <mxCell id="BtCr32K9hSUPDEqNoKbr-11" style="edgeStyle=orthogonalEdgeStyle;rounded=0;orthogonalLoop=1;jettySize=auto;html=1;exitX=0.5;exitY=0;exitDx=0;exitDy=0;endArrow=none;endFill=0;" parent="1" source="BtCr32K9hSUPDEqNoKbr-4" edge="1">
          <mxGeometry relative="1" as="geometry">
            <mxPoint x="790" y="360" as="targetPoint" />
          </mxGeometry>
        </mxCell>
        <mxCell id="BtCr32K9hSUPDEqNoKbr-4" value="&lt;u&gt;Character_idCharacter&lt;/u&gt;" style="rounded=0;whiteSpace=wrap;html=1;" parent="1" vertex="1">
          <mxGeometry x="840" y="440" width="140" height="60" as="geometry" />
        </mxCell>
        <mxCell id="BtCr32K9hSUPDEqNoKbr-12" style="edgeStyle=orthogonalEdgeStyle;rounded=0;orthogonalLoop=1;jettySize=auto;html=1;exitX=0.5;exitY=0;exitDx=0;exitDy=0;endArrow=none;endFill=0;" parent="1" source="BtCr32K9hSUPDEqNoKbr-5" edge="1">
          <mxGeometry relative="1" as="geometry">
            <mxPoint x="940" y="-70" as="targetPoint" />
            <Array as="points">
              <mxPoint x="1040" y="400" />
              <mxPoint x="1200" y="400" />
              <mxPoint x="1200" y="50" />
              <mxPoint x="940" y="50" />
            </Array>
          </mxGeometry>
        </mxCell>
        <mxCell id="BtCr32K9hSUPDEqNoKbr-5" value="&lt;u&gt;Location_id&lt;/u&gt;" style="rounded=0;whiteSpace=wrap;html=1;" parent="1" vertex="1">
          <mxGeometry x="980" y="440" width="120" height="60" as="geometry" />
        </mxCell>
        <mxCell id="BtCr32K9hSUPDEqNoKbr-6" value="Is At" style="text;html=1;align=center;verticalAlign=middle;resizable=0;points=[];autosize=1;strokeColor=none;fillColor=none;" parent="1" vertex="1">
          <mxGeometry x="855" y="408" width="50" height="30" as="geometry" />
        </mxCell>
        <mxCell id="BtCr32K9hSUPDEqNoKbr-10" style="edgeStyle=orthogonalEdgeStyle;rounded=0;orthogonalLoop=1;jettySize=auto;html=1;exitX=0.5;exitY=0;exitDx=0;exitDy=0;endArrow=none;endFill=0;" parent="1" source="BtCr32K9hSUPDEqNoKbr-7" edge="1">
          <mxGeometry relative="1" as="geometry">
            <mxPoint x="790" y="160" as="targetPoint" />
            <Array as="points">
              <mxPoint x="910" y="520" />
              <mxPoint x="791" y="520" />
            </Array>
          </mxGeometry>
        </mxCell>
        <mxCell id="BtCr32K9hSUPDEqNoKbr-7" value="&lt;u&gt;Character_idCharacter&lt;/u&gt;" style="rounded=0;whiteSpace=wrap;html=1;" parent="1" vertex="1">
          <mxGeometry x="840" y="550" width="140" height="60" as="geometry" />
        </mxCell>
        <mxCell id="BtCr32K9hSUPDEqNoKbr-9" value="Enemy" style="text;html=1;align=center;verticalAlign=middle;resizable=0;points=[];autosize=1;strokeColor=none;fillColor=none;" parent="1" vertex="1">
          <mxGeometry x="850" y="518" width="60" height="30" as="geometry" />
        </mxCell>
        <mxCell id="lTxiRBohIcLwqggLyY10-1" value="Users" style="rounded=0;whiteSpace=wrap;html=1;" vertex="1" parent="1">
          <mxGeometry x="730" y="-42" width="120" height="60" as="geometry" />
        </mxCell>
      </root>
    </mxGraphModel>
  </diagram>
</mxfile>
